<?xml version="1.0" standalone="no"?>
<!DOCTYPE svg PUBLIC "-//W3C//DTD SVG 20010904//EN"
 "http://www.w3.org/TR/2001/REC-SVG-20010904/DTD/svg10.dtd">
<svg version="1.0" xmlns="http://www.w3.org/2000/svg"
 width="669.000000pt" height="669.000000pt" viewBox="0 0 669.000000 669.000000"
 preserveAspectRatio="xMidYMid meet">
<metadata>
Created by potrace 1.14, written by Peter Selinger 2001-2017
</metadata>
<g transform="translate(0.000000,669.000000) scale(0.100000,-0.100000)"
fill="#000000" stroke="none">
<path d="M2410 5576 c-87 -29 -89 -31 -191 -126 -68 -63 -88 -88 -84 -102 8
-23 1 -23 -140 -2 l-110 16 -87 -41 c-66 -31 -96 -53 -127 -90 -23 -27 -41
-51 -41 -54 0 -2 27 -7 60 -11 32 -4 110 -19 173 -35 84 -20 119 -25 135 -18
28 13 39 3 22 -18 -8 -9 -14 -40 -14 -68 -1 -38 -10 -71 -34 -118 -27 -56 -37
-67 -63 -73 -48 -9 -49 -9 -49 36 0 33 -3 39 -12 30 -15 -15 -38 -16 -38 -1 0
14 51 81 103 136 l40 41 -39 11 c-97 28 -251 54 -276 48 -19 -5 -30 -16 -34
-33 -6 -24 5 -93 21 -136 5 -12 2 -18 -8 -18 -16 0 -47 67 -47 100 0 30 -15
32 -40 5 l-23 -24 22 -60 c32 -89 65 -141 126 -205 l56 -57 -21 -57 c-64 -170
-66 -434 -4 -582 l15 -35 18 24 c25 33 51 24 66 -24 19 -66 60 -138 109 -192
44 -49 56 -76 37 -87 -23 -14 -46 -194 -46 -356 1 -178 14 -269 62 -410 60
-178 212 -451 250 -449 43 2 68 16 73 39 8 33 36 37 64 10 l23 -21 16 25 c13
19 30 26 87 36 71 12 81 19 56 39 -23 19 -67 130 -64 159 7 63 89 28 201 -84
38 -38 78 -85 89 -105 l20 -36 91 28 c51 15 111 33 135 39 l42 11 -61 49
c-108 86 -112 114 -18 99 54 -9 122 -32 207 -72 l52 -24 88 24 c48 13 111 31
141 39 l55 16 -110 57 c-277 144 -473 315 -672 583 -47 64 -88 115 -90 113 -2
-1 6 -33 17 -70 32 -103 27 -121 -26 -92 -34 19 -174 147 -223 204 -50 57 -78
74 -109 66 -18 -5 -21 -1 -21 26 0 37 5 38 61 7 100 -56 161 -68 369 -77 118
-5 216 -14 250 -23 30 -8 57 -13 60 -10 2 3 -12 21 -33 40 -37 34 -47 54 -26
54 13 0 213 -200 206 -206 -3 -3 -27 7 -55 23 -28 15 -53 26 -56 23 -3 -3 3
-33 13 -65 11 -33 15 -62 10 -63 -5 -2 -44 28 -86 68 -79 73 -110 91 -202 116
-58 15 -81 8 -81 -25 0 -17 113 -173 149 -205 l21 -19 0 51 c0 29 4 52 9 52 5
0 42 -39 81 -86 155 -184 317 -322 531 -455 97 -60 134 -77 208 -95 49 -12 56
-11 67 4 8 9 14 25 14 35 0 12 8 17 29 17 31 0 41 18 41 78 0 47 -27 174 -56
260 -29 87 -63 141 -104 165 -24 15 -30 25 -30 54 0 35 0 35 41 31 36 -3 45 1
84 38 85 79 170 281 182 431 5 67 8 72 32 78 74 19 124 95 142 221 13 81 1
192 -25 241 -13 25 -13 25 -41 -33 -20 -41 -57 -87 -119 -149 -139 -137 -122
-136 -263 -19 -65 55 -168 138 -229 186 -62 48 -114 94 -118 103 -3 8 -13 15
-22 15 -20 0 -168 -78 -232 -122 -44 -31 -57 -32 -47 -6 8 19 90 81 138 104
20 10 37 23 37 30 0 14 -196 112 -295 147 -129 46 -221 62 -350 61 -102 -1
-131 -5 -197 -27 -42 -15 -99 -40 -126 -57 -56 -34 -62 -36 -62 -16 0 19 99
80 155 96 l46 13 -7 86 c-15 208 79 399 231 470 67 32 162 38 237 17 66 -20
162 -79 201 -125 47 -57 30 -70 -27 -21 -99 88 -247 111 -358 57 -103 -51
-175 -174 -185 -320 -3 -46 -3 -96 1 -111 6 -24 10 -26 62 -26 l55 0 -8 48
c-12 68 -6 156 11 190 8 16 13 32 10 35 -3 3 11 21 31 41 28 29 43 36 73 36
21 0 47 -6 58 -14 18 -14 18 -15 1 -21 -27 -11 -47 -59 -47 -115 0 -95 54
-167 117 -157 36 6 39 1 24 -51 -8 -28 -7 -34 7 -38 56 -18 138 -52 216 -88
62 -28 91 -37 94 -28 6 19 22 14 22 -8 0 -20 56 -63 74 -57 6 2 18 28 28 59
l19 56 -26 37 c-53 78 -20 208 48 191 15 -3 33 -19 42 -36 15 -29 17 -30 38
-15 25 18 60 19 90 4 40 -21 107 -80 107 -95 0 -22 -12 -17 -74 31 -32 25 -66
45 -75 45 -37 0 -90 -80 -126 -188 -18 -57 -14 -74 13 -54 55 40 84 54 141 72
35 11 80 20 100 20 55 0 81 10 74 27 -6 15 5 14 54 -4 8 -3 10 8 6 36 -5 36
-3 41 13 41 24 0 57 -21 106 -68 21 -20 39 -34 41 -31 8 8 -23 166 -49 248
-58 191 -198 334 -317 326 -56 -3 -107 -22 -107 -40 0 -7 16 -25 35 -39 39
-30 91 -94 82 -102 -3 -3 -21 12 -41 34 -20 22 -53 48 -74 58 -20 10 -39 21
-42 24 -7 8 -84 30 -104 30 -13 0 -15 -4 -7 -17 5 -10 10 -22 10 -28 1 -5 11
-10 24 -10 12 0 23 -8 25 -17 2 -9 12 -18 23 -21 14 -4 19 -14 19 -40 0 -30
-4 -37 -29 -45 -28 -10 -30 -9 -45 29 -9 22 -14 45 -11 50 4 5 0 9 -7 9 -7 0
-19 14 -26 30 -35 78 -157 190 -271 248 -86 44 -165 67 -264 77 -48 5 -70 11
-76 24 -9 15 -71 39 -141 54 -14 3 -54 -4 -90 -17z m-173 -405 c-11 -82 -78
-145 -93 -87 -8 34 3 66 38 103 39 41 62 34 55 -16z m1377 -163 c57 -66 90
-208 49 -208 -10 0 -25 6 -33 13 -27 21 -70 83 -63 90 3 4 2 7 -3 7 -6 0 -16
22 -23 50 -24 95 12 119 73 48z m-1384 -102 c19 -37 7 -102 -28 -145 -37 -46
-72 -52 -107 -17 -33 33 -32 50 6 87 16 16 35 43 40 59 16 44 68 54 89 16z
m-280 -185 c16 -32 -12 -137 -59 -221 -5 -8 -19 -35 -32 -60 -12 -25 -27 -48
-33 -52 -31 -20 -76 53 -76 124 1 74 56 168 125 209 39 24 62 24 75 0z m66
-444 c2 -88 12 -143 39 -212 24 -59 25 -79 3 -57 -7 7 -27 12 -44 12 -40 0
-88 45 -119 112 -19 42 -22 62 -16 126 2 23 45 12 78 -20 29 -28 33 -29 34
-12 1 41 7 119 8 123 0 2 4 1 8 -3 4 -4 8 -35 9 -69z m-271 -35 c2 -64 -10
-76 -30 -28 -18 43 -20 103 -2 109 19 6 30 -22 32 -81z m319 -621 c23 -26 36
-165 22 -230 -15 -68 -81 -158 -110 -148 -5 2 -19 20 -29 41 -24 46 -27 155
-8 262 16 89 38 118 80 103 16 -6 36 -18 45 -28z m394 -243 c26 -24 50 -47 54
-53 3 -5 42 -56 85 -113 141 -186 152 -211 113 -247 -19 -17 -26 -18 -66 -7
-138 37 -296 236 -298 376 -1 96 37 110 112 44z m-247 -223 c20 -34 45 -147
55 -247 6 -58 4 -68 -10 -74 -25 -10 -81 49 -117 122 -48 97 -51 172 -8 215
27 27 59 21 80 -16z"/>
<path d="M3548 4674 c-14 -3 -32 -11 -38 -19 -29 -35 123 -119 300 -165 129
-34 184 -33 228 5 l26 22 -20 34 c-43 73 -173 119 -349 124 -66 2 -132 1 -147
-1z"/>
<path d="M4452 3265 c-11 -14 -32 -76 -47 -140 -20 -86 -35 -128 -61 -166
l-34 -51 30 7 c92 20 121 3 123 -74 1 -30 7 -51 13 -51 14 0 25 -36 17 -56 -3
-8 -11 -14 -19 -14 -9 0 -14 -11 -14 -27 0 -27 1 -27 48 21 29 30 42 50 35 53
-26 9 -11 35 65 113 53 55 90 84 119 94 23 8 45 12 47 7 11 -17 146 5 146 24
0 33 -126 95 -191 95 -30 0 -44 13 -54 52 -9 37 -68 102 -109 122 -51 24 -91
21 -114 -9z"/>
<path d="M5725 3160 c-27 -5 -108 -13 -180 -19 -194 -15 -398 -40 -407 -49 -5
-5 -7 -172 -6 -373 l3 -364 44 -3 c24 -2 85 6 135 17 132 28 207 41 248 41
l35 0 6 -67 c4 -38 7 -102 7 -144 l0 -75 -52 -12 c-29 -6 -64 -14 -78 -16 -75
-13 -288 -59 -319 -69 l-36 -12 -3 -138 c-2 -106 0 -137 10 -137 13 0 260 68
475 130 l113 33 68 96 c38 53 72 102 76 110 9 13 9 53 1 301 l-4 135 -43 39
c-24 21 -61 54 -84 72 l-41 34 -137 -30 c-75 -17 -138 -30 -141 -30 -5 0 4
131 13 183 l7 41 95 22 c52 13 129 30 170 39 41 10 80 21 85 25 6 5 24 10 40
12 l30 3 3 75 c2 41 0 90 -3 108 -5 30 -9 32 -43 31 -20 -1 -59 -5 -87 -9z"/>
<path d="M4920 2971 c0 -10 -128 -33 -140 -26 -15 10 -47 -13 -54 -37 -3 -13
-55 -75 -115 -138 -61 -63 -110 -120 -111 -126 0 -10 30 -40 138 -137 l22 -21
48 47 c26 26 53 47 60 47 14 0 13 -84 -4 -674 l-6 -228 58 7 c33 4 97 14 143
24 l85 17 -2 484 c-2 483 -9 730 -21 748 -7 11 -101 23 -101 13z"/>
<path d="M4365 2880 c-16 -4 -48 -8 -70 -9 -23 0 -45 -5 -50 -10 -11 -10 -90
-29 -355 -86 -91 -19 -187 -41 -215 -48 l-50 -12 -7 -85 c-8 -109 -10 -1123
-2 -1144 7 -18 39 -22 49 -6 3 6 23 10 43 10 20 0 53 5 72 10 19 6 82 19 140
29 90 16 257 51 443 92 29 7 51 19 58 31 7 13 9 219 7 626 -3 666 2 619 -63
602z m-212 -1021 c-5 -4 -42 -15 -83 -23 -41 -9 -101 -23 -132 -30 l-58 -14 0
353 0 353 28 4 c15 3 63 15 107 28 44 12 94 26 110 29 l30 7 3 -350 c1 -192
-1 -353 -5 -357z"/>
<path d="M4070 2463 c-25 -7 -56 -16 -69 -19 -62 -13 -59 3 -56 -304 1 -154 4
-282 6 -285 5 -4 157 30 164 37 5 5 8 579 3 583 -2 1 -23 -4 -48 -12z"/>
<path d="M3460 2755 c-36 -13 -53 -18 -280 -81 -74 -20 -193 -53 -265 -73
l-130 -37 -3 -183 -2 -182 47 6 c84 11 158 27 169 36 7 5 15 38 19 73 l6 63
66 6 c36 4 71 11 77 16 6 5 35 13 64 17 l52 7 0 -122 0 -121 -93 -122 c-52
-68 -164 -215 -250 -328 l-157 -205 0 -117 c0 -105 2 -118 18 -119 35 -2 68 2
112 16 25 8 86 19 135 25 135 15 162 19 260 36 140 24 205 38 216 45 15 9 25
254 11 263 -6 4 -30 2 -54 -3 -24 -5 -68 -14 -98 -19 -30 -6 -80 -15 -110 -22
-140 -28 -140 -28 -140 -10 0 9 14 26 30 38 17 13 30 28 30 35 0 7 13 22 29
35 17 13 76 77 133 144 57 66 122 141 145 166 l43 47 -2 190 c0 105 -3 257 -7
340 -7 165 -6 164 -71 140z"/>
<path d="M3570 2748 c0 -12 1 -19 3 -17 1 2 9 12 16 22 12 14 11 17 -3 17 -10
0 -16 -8 -16 -22z"/>
<path d="M2585 2604 c-44 -8 -100 -18 -125 -22 l-45 -7 3 -350 c2 -193 11
-462 19 -600 8 -137 16 -281 17 -318 1 -77 11 -89 60 -76 17 5 63 12 101 16
l70 8 3 683 c2 543 0 682 -10 681 -7 -1 -49 -7 -93 -15z"/>
<path d="M4492 2304 c3 -255 4 -277 21 -280 9 -1 17 2 17 8 0 6 9 8 20 5 11
-3 20 -1 20 5 0 5 8 8 18 6 21 -3 92 29 92 42 0 6 6 10 14 10 35 0 40 35 37
258 -1 79 -2 82 -20 72 -22 -11 -71 5 -72 24 0 11 -121 118 -140 124 -6 2 -8
-101 -7 -274z"/>
<path d="M3573 2480 c0 -47 2 -66 4 -42 2 23 2 61 0 85 -2 23 -4 4 -4 -43z"/>
<path d="M2217 2497 c-62 -14 -102 -28 -107 -38 -5 -9 -12 -126 -15 -260 -3
-134 -10 -291 -15 -349 -4 -57 -6 -108 -4 -112 3 -5 2 -69 -2 -142 l-7 -134
-83 -21 c-85 -21 -130 -26 -158 -15 -14 5 -16 62 -16 540 0 502 -1 534 -17
534 -27 -1 -252 -56 -261 -64 -4 -4 -10 -184 -13 -399 -4 -216 -10 -523 -14
-684 -8 -331 -13 -312 75 -286 25 7 62 13 82 13 21 0 57 6 80 14 24 8 77 22
118 32 41 9 77 20 80 25 3 4 53 20 110 34 58 14 131 32 162 40 32 8 73 15 91
15 l34 0 2 433 c2 433 -7 848 -18 846 -3 0 -50 -11 -104 -22z"/>
<path d="M1195 2359 c-44 -10 -134 -28 -200 -39 -66 -12 -156 -30 -200 -40
-44 -10 -107 -24 -140 -31 -33 -7 -66 -17 -72 -22 -18 -13 -19 -1382 -2 -1371
6 3 63 19 126 34 63 16 117 31 120 34 3 3 1 132 -3 286 -5 155 -7 284 -5 286
8 8 84 -119 191 -319 l105 -197 40 5 c22 4 73 15 113 26 40 10 80 19 90 19 10
0 27 7 39 15 21 15 21 17 -84 198 -58 100 -114 199 -125 220 -11 20 -24 40
-29 43 -5 3 -9 22 -9 43 0 35 3 39 31 45 17 3 46 6 65 6 41 0 41 1 48 225 4
88 11 237 17 332 6 95 9 184 5 198 -7 29 -12 29 -121 4z m-109 -401 c-2 -68
-5 -142 -5 -165 l-1 -41 -62 -8 c-35 -4 -76 -8 -93 -10 -16 -1 -49 -5 -72 -8
l-43 -6 0 154 c0 85 4 157 8 160 5 3 33 8 63 11 30 3 81 12 114 20 105 23 97
32 91 -107z"/>
<path d="M3180 2323 c-95 -14 -87 -8 -94 -74 -5 -41 -13 -65 -27 -77 -19 -17
-172 -50 -236 -51 -20 -1 -36 5 -43 17 -8 13 -10 6 -8 -33 l3 -49 108 -49
c153 -68 155 -68 194 -15 17 24 59 78 92 121 l61 77 0 70 c0 50 -4 70 -12 69
-7 -1 -24 -3 -38 -6z"/>
<path d="M3543 1975 c-7 -8 -13 -21 -13 -30 0 -8 -7 -15 -15 -15 -8 0 -15 -7
-15 -15 0 -8 -6 -15 -14 -15 -16 0 -69 -67 -59 -73 9 -6 120 -27 140 -27 10 0
13 23 13 95 0 97 -8 114 -37 80z"/>
</g>
</svg>
